<svg width="12" height="15" viewBox="0 0 12 15" fill="none" xmlns="http://www.w3.org/2000/svg">
<path d="M10.0522 7.87202C10.0461 6.73422 10.5539 5.87545 11.5815 5.24299C11.0065 4.40902 10.1379 3.95018 8.99093 3.86027C7.90514 3.77347 6.71842 4.50203 6.28411 4.50203C5.82532 4.50203 4.77318 3.89128 3.94737 3.89128C2.2407 3.91918 0.426971 5.27089 0.426971 8.02083C0.426971 8.8331 0.573782 9.67224 0.867404 10.5382C1.2589 11.676 2.67195 14.4663 4.14618 14.4198C4.91693 14.4012 5.46135 13.8648 6.46456 13.8648C7.43718 13.8648 7.94184 14.4198 8.8013 14.4198C10.2878 14.3981 11.5662 11.8621 11.9394 10.7212C9.9452 9.76938 10.0522 7.93092 10.0522 7.87202V7.87202ZM8.32111 2.78138C9.15609 1.7769 9.07963 0.862319 9.05516 0.533691C8.31805 0.577095 7.46471 1.04213 6.9784 1.61568C6.44315 2.22954 6.12812 2.9891 6.19541 3.84477C6.99369 3.90678 7.72163 3.49134 8.32111 2.78138V2.78138Z" fill="black"/>
</svg>
