<svg width="16" height="16" viewBox="0 0 16 16" fill="none" xmlns="http://www.w3.org/2000/svg">
<path opacity="0.4" d="M12.3953 5.4634C12.6917 5.68174 12.755 6.09908 12.5367 6.39554C12.3671 6.62581 12.1975 6.8447 12.0487 7.03536C11.7517 7.4159 11.3428 7.92563 10.8986 8.43723C10.4572 8.94556 9.96783 9.4711 9.51103 9.87476C9.28336 10.0759 9.04803 10.2609 8.81856 10.3992C8.60743 10.5265 8.31729 10.6668 7.99989 10.6668C7.68249 10.6668 7.39229 10.5265 7.18116 10.3992C6.95169 10.2609 6.71643 10.0759 6.48876 9.87476C6.0319 9.4711 5.54254 8.94556 5.10118 8.43723C4.65695 7.92563 4.24807 7.4159 3.95105 7.03536C3.80227 6.8447 3.63264 6.62581 3.46305 6.39554C3.24471 6.09908 3.30803 5.68174 3.60449 5.4634C3.72367 5.37563 3.86237 5.33338 3.99984 5.3335H7.99989H11.9999C12.1374 5.33338 12.2761 5.37563 12.3953 5.4634Z" fill="#090012"/>
<path d="M12.3954 5.4634C12.6918 5.68174 12.7551 6.09908 12.5368 6.39554C12.3672 6.62581 12.1976 6.8447 12.0488 7.03536C11.7518 7.4159 11.3429 7.92563 10.8987 8.43723C10.4573 8.94556 9.96792 9.4711 9.51112 9.87476C9.28345 10.0759 9.04812 10.2609 8.81865 10.3992C8.60752 10.5265 8.31738 10.6668 7.99998 10.6668C7.68259 10.6668 7.39239 10.5265 7.18125 10.3992C6.95179 10.2609 6.71652 10.0759 6.48885 9.87476C6.10056 9.5317 5.6888 9.10056 5.30298 8.66683L8.66672 5.3335H12C12.1375 5.33338 12.2762 5.37563 12.3954 5.4634Z" fill="#090012"/>
</svg>
