<svg width="19" height="19" viewBox="0 0 19 19" fill="none" xmlns="http://www.w3.org/2000/svg">
<path d="M4.78034 12.6019C4.48745 12.8948 4.48745 13.3697 4.78034 13.6626L8.44951 17.3282C9.03538 17.9135 9.98473 17.9132 10.5703 17.3276L14.2381 13.6599C14.531 13.367 14.531 12.8921 14.2381 12.5992C13.9452 12.3063 13.4703 12.3063 13.1774 12.5992L10.0382 15.7384C9.7453 16.0313 9.27042 16.0313 8.97753 15.7384L5.841 12.6019C5.54811 12.309 5.07323 12.309 4.78034 12.6019Z" fill="#77727B"/>
<path d="M14.2381 6.41507C14.531 6.12217 14.531 5.6473 14.2381 5.35441L10.5689 1.68882C9.98304 1.10352 9.03369 1.10376 8.44811 1.68934L4.78034 5.35711C4.48745 5.65001 4.48745 6.12488 4.78034 6.41777C5.07323 6.71067 5.54811 6.71067 5.841 6.41777L8.98024 3.27854C9.27313 2.98564 9.748 2.98564 10.0409 3.27854L13.1774 6.41507C13.4703 6.70796 13.9452 6.70796 14.2381 6.41507Z" fill="#77727B"/>
</svg>
