<svg width="12" height="12" viewBox="0 0 12 12" fill="none" xmlns="http://www.w3.org/2000/svg">
<path d="M4.08822 1.3782C4.08822 1.12295 3.88129 0.916016 3.62603 0.916016C3.37078 0.916016 3.16385 1.12295 3.16385 1.3782V1.58565C3.33963 1.52989 3.52691 1.49009 3.72556 1.46121C3.84015 1.44456 3.96099 1.43124 4.08822 1.4206V1.3782Z" fill="#6A656E"/>
<path d="M9.63445 1.58565C9.45868 1.52989 9.27141 1.49009 9.07276 1.46121C8.95814 1.44456 8.83732 1.43124 8.71008 1.4206V1.3782C8.71008 1.12295 8.917 0.916016 9.17227 0.916016C9.42753 0.916016 9.63445 1.12295 9.63445 1.3782V1.58565Z" fill="#6A656E"/>
<path opacity="0.4" fill-rule="evenodd" clip-rule="evenodd" d="M6.87464 1.37793H5.92365C5.02319 1.37792 4.29686 1.3779 3.72556 1.46094C3.12935 1.5476 2.63548 1.7328 2.24781 2.1519C1.86488 2.56589 1.70001 3.08465 1.62208 3.71134C1.54619 4.32156 1.54619 5.10041 1.5462 6.08015V6.38159C1.54619 7.36133 1.54619 8.1402 1.62208 8.75038C1.70001 9.3771 1.86488 9.89586 2.24781 10.3098C2.63548 10.7289 3.12935 10.9141 3.72556 11.0008C4.29686 11.0839 5.02319 11.0838 5.92365 11.0838H6.87464C7.77512 11.0838 8.50144 11.0839 9.07275 11.0008C9.66896 10.9141 10.1628 10.7289 10.5505 10.3098C10.9334 9.89586 11.0983 9.3771 11.1762 8.75038C11.2521 8.1402 11.2521 7.36133 11.2521 6.38159V6.08015C11.2521 5.10041 11.2521 4.32156 11.1762 3.71134C11.0983 3.08465 10.9334 2.56589 10.5505 2.1519C10.1628 1.7328 9.66896 1.5476 9.07275 1.46094C8.50144 1.3779 7.77512 1.37792 6.87464 1.37793ZM2.93176 4.61322C2.71979 4.61322 2.6138 4.61322 2.5463 4.67986C2.47881 4.74649 2.47745 4.85112 2.47473 5.06039C2.4707 5.37153 2.47057 5.71979 2.47057 6.11218V6.34956C2.47057 7.36859 2.47141 8.08982 2.53938 8.63631C2.60612 9.17296 2.73061 9.47051 2.92639 9.68214C3.11743 9.88869 3.37863 10.0163 3.85851 10.086C4.35563 10.1583 5.01455 10.1594 5.96007 10.1594H6.83822C7.78371 10.1594 8.44265 10.1583 8.93977 10.086C9.41966 10.0163 9.68084 9.88869 9.87191 9.68214C10.0677 9.47051 10.1922 9.17296 10.2589 8.63631C10.3269 8.08982 10.3277 7.36859 10.3277 6.34956V6.11218C10.3277 5.71979 10.3276 5.37153 10.3236 5.06039C10.3208 4.85112 10.3195 4.74649 10.252 4.67986C10.1845 4.61322 10.0785 4.61322 9.86655 4.61322H2.93176Z" fill="#090012"/>
</svg>
