<svg width="16" height="16" viewBox="0 0 16 16" fill="none" xmlns="http://www.w3.org/2000/svg">
<path fill-rule="evenodd" clip-rule="evenodd" d="M2.03571 0H4.74465C5.87471 0 6.78036 0.920012 6.78036 2.04883V4.77606C6.78036 5.91207 5.87471 6.82409 4.74465 6.82409H2.03571C0.913666 6.82409 0 5.91207 0 4.77606V2.04883C0 0.920012 0.913666 0 2.03571 0ZM2.03571 9.17591H4.74465C5.87471 9.17591 6.78036 10.0887 6.78036 11.2247V13.952C6.78036 15.08 5.87471 16 4.74465 16H2.03571C0.913666 16 0 15.08 0 13.952V11.2247C0 10.0887 0.913666 9.17591 2.03571 9.17591ZM13.9645 0H11.2556C10.1255 0 9.21987 0.920012 9.21987 2.04883V4.77606C9.21987 5.91207 10.1255 6.82409 11.2556 6.82409H13.9645C15.0866 6.82409 16.0002 5.91207 16.0002 4.77606V2.04883C16.0002 0.920012 15.0866 0 13.9645 0ZM11.2556 9.17591H13.9646C15.0866 9.17591 16.0003 10.0887 16.0003 11.2247V13.952C16.0003 15.08 15.0866 16 13.9646 16H11.2556C10.1256 16 9.21992 15.08 9.21992 13.952V11.2247C9.21992 10.0887 10.1256 9.17591 11.2556 9.17591Z" fill="#090012"/>
</svg>
