<svg width="15" height="17" viewBox="0 0 15 17" fill="none" xmlns="http://www.w3.org/2000/svg">
<path fill-rule="evenodd" clip-rule="evenodd" d="M1.70047 4.18167C0.154143 2.80716 1.12637 0.25 3.19529 0.25H11.8047C13.8736 0.25 14.8458 2.80716 13.2995 4.18167L10.0017 7.11304C9.8416 7.25537 9.74999 7.45937 9.74999 7.6736V15.3143C9.74999 16.6507 8.13427 17.3199 7.18933 16.375L5.68933 14.875C5.40802 14.5937 5.24999 14.2122 5.24999 13.8143V7.6736C5.24999 7.45937 5.15838 7.25537 4.99826 7.11304L1.70047 4.18167ZM3.19529 1.75C2.50565 1.75 2.18157 2.60239 2.69701 3.06056L5.99481 5.99193C6.47516 6.4189 6.74999 7.03091 6.74999 7.6736V13.8143L8.24999 15.3143V7.6736C8.24999 7.03091 8.52482 6.41891 9.00517 5.99193L12.303 3.06056C12.8184 2.60239 12.4943 1.75 11.8047 1.75H3.19529Z" fill="#77727B"/>
</svg>
