<svg width="128" height="99" viewBox="0 0 128 99" fill="none" xmlns="http://www.w3.org/2000/svg">
<path d="M90.457 0.900637C90.457 0.700496 90.4126 0.48034 90.3459 0.0600427C88.7018 0.0600427 86.48 0.140099 83.9027 0.420297C77.3485 1.14081 72.6383 2.74194 71.5496 3.12221C67.1727 4.64329 63.5956 6.56464 60.7517 8.40595C61.1516 9.1865 61.7737 10.3273 62.6846 11.6282C64.3288 13.9699 65.0397 14.13 67.0394 16.4917C67.3726 16.8719 70.7275 20.9148 71.4829 24.3973C71.6162 24.9777 71.7051 25.6782 71.7495 26.4587C71.7718 27.2793 71.7273 28.24 71.5051 29.3007C70.572 26.9791 69.3944 25.378 68.4835 24.3172C67.8392 23.5567 67.0171 22.7761 65.3508 21.235C64.3288 20.2944 63.3067 19.3737 62.3292 18.413C61.2183 17.3323 60.2185 16.1714 59.3742 14.9106C57.93 12.709 57.5523 10.7276 57.419 10.0271C57.3523 9.70687 57.3301 9.44668 57.3079 9.26656C56.6636 9.88699 56.1748 10.4274 55.8415 10.8076C54.153 12.789 53.0643 14.7504 51.6646 17.3323C51.5979 17.4724 51.5535 17.5324 51.5313 17.5924C50.7981 19.0935 50.3537 20.6546 50.2204 22.2958C50.1315 23.2164 50.176 24.1171 50.3537 25.0377C50.6425 26.4587 51.2869 27.7396 52.1534 28.9405C52.931 30.0212 53.8641 30.9819 54.8417 31.9026C55.9971 33.0034 57.1968 34.0641 58.3522 35.1449C59.2186 35.9454 60.3073 37.0662 61.5515 38.6273C62.6624 40.0083 63.44 41.2492 63.9955 42.1698C64.7731 41.5094 65.5507 40.8689 66.3284 40.2085C66.2839 38.6674 65.9285 37.4665 65.6174 36.686C64.9731 35.0648 64.0177 33.864 63.3512 33.0434C63.0179 32.6231 62.6624 32.2228 62.6624 32.2228C61.9514 31.4222 61.3738 30.8819 61.2183 30.7418C59.1742 28.8204 56.7302 26.5388 55.8415 24.2171C55.4416 23.1764 54.9306 21.0549 56.3525 17.8326C56.9302 19.4938 57.73 20.7547 58.441 21.6753C58.9965 22.3958 59.7741 23.1564 61.3738 24.6374C62.4847 25.6582 63.5956 26.6589 64.662 27.6996C65.7951 28.7804 66.8172 29.9612 67.6837 31.2421C67.9725 31.6824 69.0612 33.5037 69.6833 36.0855C69.7722 36.4858 69.8388 36.8261 69.8832 37.0662C70.6386 36.4658 71.4163 35.7253 72.2161 34.8647C73.4825 33.4837 74.4157 32.1227 75.06 30.9819C75.06 30.9819 77.1041 27.1792 76.9485 22.7761C76.9263 22.1156 76.6597 20.6946 76.6597 20.6946C76.5042 20.1543 76.3042 19.6139 76.0598 19.0735C75.4822 17.8726 74.6601 16.7919 73.7492 15.7912C72.7271 14.6704 72.6383 14.7304 70.6831 12.8091C69.7944 11.9485 69.1501 11.268 67.8392 9.90701C67.6615 9.72688 67.5059 9.56677 67.3726 9.40666C70.061 8.00566 72.4161 7.36521 75.3044 6.60467C77.6151 5.98423 80.77 5.26372 84.5915 4.76337C84.6359 4.98353 84.7248 5.32377 84.7915 5.72405C84.7915 5.72405 84.8359 6.10432 84.8581 6.5046C85.4802 17.8927 84.4804 23.4766 84.4804 23.4766C83.7472 27.5795 83.1473 32.1828 79.5925 37.0462C76.3487 41.5094 71.5274 44.9918 65.3064 47.5136C65.0397 47.6137 64.6843 47.6537 64.3288 47.6337C64.0844 47.6337 63.8178 47.6337 63.5734 47.6337C63.2179 47.6537 62.8624 47.6337 62.5958 47.5136C51.0647 42.8503 44.4215 34.8647 43.4439 23.4966C43.3328 22.1557 43.2218 19.9741 43.0885 15.6311C42.9774 12.2086 42.9329 9.36663 42.9107 7.42525C42.9107 7.36521 43.0218 7.02497 43.0885 6.54463C43.1329 6.2244 43.1551 5.94421 43.1551 5.76408C46.4878 6.02426 49.8205 6.28445 53.1754 6.54463C53.7086 5.98423 54.464 5.32377 55.486 4.68331C56.6636 3.94279 57.7745 3.50248 58.6188 3.24229C55.3305 2.32164 51.4868 1.44102 47.1543 0.840595C43.7106 0.360255 40.5112 0.100071 37.6451 0C37.5784 0.420297 37.534 0.620439 37.534 0.840595C37.5562 8.38593 37.3785 15.9313 37.6673 23.4566C38.1783 36.5258 48.3319 48.5744 62.1292 52.7974C62.6846 52.9775 63.3734 53.0375 63.9955 52.9775C64.6176 53.0375 65.3064 52.9775 65.8618 52.7974C79.6591 48.5744 89.8127 36.5258 90.3237 23.4566C90.6348 15.9913 90.4348 8.44598 90.457 0.900637Z" fill="#EB5D28"/>
<path d="M5.168 94.192C4.272 94.192 3.504 94.0213 2.864 93.68C2.23467 93.3493 1.744 92.8693 1.392 92.24C1.05067 91.6107 0.88 90.8693 0.88 90.016C0.88 89.6747 0.922667 89.2907 1.008 88.864C1.09333 88.4267 1.18933 88.0693 1.296 87.792C1.38133 87.5893 1.46133 87.456 1.536 87.392C1.61067 87.3173 1.712 87.296 1.84 87.328L2.32 87.472C2.49067 87.5147 2.58667 87.5733 2.608 87.648C2.64 87.7227 2.63467 87.8133 2.592 87.92C2.464 88.2187 2.368 88.5547 2.304 88.928C2.25067 89.2907 2.224 89.6053 2.224 89.872C2.224 90.768 2.496 91.4613 3.04 91.952C3.59467 92.4427 4.31467 92.688 5.2 92.688C5.81867 92.688 6.37333 92.5813 6.864 92.368C7.36533 92.1653 7.76 91.8347 8.048 91.376C8.34667 90.9067 8.49067 90.288 8.48 89.52C8.48 89.1573 8.432 88.768 8.336 88.352C8.25067 87.936 8.13867 87.4667 8 86.944C7.936 86.7093 8.032 86.56 8.288 86.496L8.832 86.336C8.98133 86.2933 9.09333 86.304 9.168 86.368C9.25333 86.4213 9.31733 86.5333 9.36 86.704C9.49867 87.216 9.61067 87.712 9.696 88.192C9.792 88.6613 9.84 89.1413 9.84 89.632C9.84 90.3467 9.72267 90.9867 9.488 91.552C9.264 92.1067 8.93867 92.5813 8.512 92.976C8.096 93.3707 7.6 93.6693 7.024 93.872C6.45867 94.0853 5.84 94.192 5.168 94.192ZM5.44 85.504C5.38667 85.5573 5.32267 85.584 5.248 85.584C5.17333 85.5733 5.104 85.5413 5.04 85.488L4.432 84.88C4.37867 84.816 4.352 84.7467 4.352 84.672C4.352 84.5973 4.37867 84.5333 4.432 84.48L5.04 83.872C5.104 83.8187 5.168 83.792 5.232 83.792C5.30667 83.7813 5.37067 83.808 5.424 83.872L6.032 84.48C6.18133 84.6293 6.18667 84.768 6.048 84.896L5.44 85.504ZM12.0274 95.936C11.846 95.936 11.7074 95.8987 11.6114 95.824C11.5154 95.76 11.4674 95.6533 11.4674 95.504V94.8C11.4674 94.6827 11.5047 94.592 11.5794 94.528C11.654 94.4747 11.7714 94.448 11.9314 94.448H12.8754C13.9207 94.448 14.742 94.24 15.3394 93.824C15.9474 93.408 16.3314 92.784 16.4914 91.952H15.3554C14.7047 91.952 14.1394 91.856 13.6594 91.664C13.19 91.4613 12.8274 91.168 12.5714 90.784C12.326 90.3893 12.2034 89.92 12.2034 89.376C12.2034 89.0027 12.262 88.6507 12.3794 88.32C12.5074 87.9893 12.6887 87.696 12.9234 87.44C13.158 87.184 13.4407 86.9813 13.7714 86.832C14.1127 86.6827 14.4967 86.608 14.9234 86.608C15.8727 86.608 16.5714 86.9333 17.0194 87.584C17.478 88.2347 17.7234 89.2053 17.7554 90.496H19.0674C19.2274 90.496 19.3074 90.576 19.3074 90.736V91.552C19.3074 91.872 19.1474 92.032 18.8274 92.032H17.6594C17.3714 93.4187 16.822 94.416 16.0114 95.024C15.2007 95.632 14.1127 95.936 12.7474 95.936H12.0274ZM15.3714 90.544H16.6034C16.5714 89.7013 16.4114 89.056 16.1234 88.608C15.8354 88.16 15.3927 87.936 14.7954 87.936C14.4434 87.936 14.1607 88.0053 13.9474 88.144C13.734 88.2827 13.574 88.4533 13.4674 88.656C13.3714 88.8587 13.3234 89.0613 13.3234 89.264C13.3234 89.7013 13.4994 90.0267 13.8514 90.24C14.214 90.4427 14.7207 90.544 15.3714 90.544ZM18.8262 92.032C18.6662 92.032 18.5862 91.9467 18.5862 91.776V90.976C18.5862 90.656 18.7462 90.496 19.0663 90.496C19.7276 90.496 20.1863 90.368 20.4423 90.112C20.7089 89.856 20.8423 89.392 20.8423 88.72V87.136C20.8423 86.9013 20.9596 86.784 21.1943 86.784H21.8343C22.0689 86.784 22.1863 86.9013 22.1863 87.136V88.72C22.1863 89.1787 22.2503 89.5413 22.3783 89.808C22.5169 90.064 22.7356 90.2453 23.0343 90.352C23.3436 90.448 23.7596 90.496 24.2823 90.496C24.4423 90.496 24.5223 90.576 24.5223 90.736V91.552C24.5223 91.872 24.3623 92.032 24.0423 92.032C23.4556 92.032 22.9223 91.936 22.4423 91.744C21.9623 91.5413 21.5889 91.168 21.3223 90.624C21.0876 91.1573 20.7409 91.5253 20.2823 91.728C19.8343 91.9307 19.3489 92.032 18.8262 92.032ZM20.5863 94.944C20.5329 94.9867 20.4689 95.0027 20.3943 94.992C20.3196 94.992 20.2556 94.9707 20.2023 94.928L19.6103 94.336C19.5569 94.2827 19.5303 94.2187 19.5303 94.144C19.5303 94.0693 19.5569 94.0053 19.6103 93.952L20.2023 93.36C20.2556 93.3067 20.3143 93.28 20.3783 93.28C20.4529 93.28 20.5223 93.3067 20.5863 93.36L21.1623 93.952C21.2263 94.0053 21.2582 94.0693 21.2582 94.144C21.2689 94.2187 21.2423 94.288 21.1783 94.352L20.5863 94.944ZM22.7783 94.944C22.7356 94.9867 22.6769 95.0027 22.6023 94.992C22.5276 94.992 22.4636 94.9707 22.4103 94.928L21.8023 94.336C21.7489 94.2827 21.7223 94.2187 21.7223 94.144C21.7223 94.0693 21.7489 94.0053 21.8023 93.952L22.4103 93.36C22.4636 93.3067 22.5223 93.28 22.5863 93.28C22.6609 93.28 22.7196 93.3067 22.7623 93.36L23.3543 93.952C23.4183 94.0053 23.4503 94.0693 23.4503 94.144C23.4609 94.2187 23.4343 94.288 23.3703 94.352L22.7783 94.944ZM24.077 92.032C23.981 92.032 23.9117 92 23.869 91.936C23.8263 91.872 23.805 91.8027 23.805 91.728V90.848C23.805 90.6987 23.8477 90.6027 23.933 90.56C24.0183 90.5173 24.1357 90.496 24.285 90.496H24.477C24.9997 90.496 25.3677 90.3573 25.581 90.08C25.805 89.8027 25.917 89.3867 25.917 88.832C25.917 88.64 25.9063 88.464 25.885 88.304C25.8743 88.1333 25.8423 87.952 25.789 87.76L25.517 86.544C25.485 86.4267 25.4957 86.336 25.549 86.272C25.6023 86.208 25.6877 86.16 25.805 86.128L26.381 86C26.6263 85.9467 26.7757 86.0427 26.829 86.288L27.117 87.696C27.1703 87.9093 27.2077 88.1547 27.229 88.432C27.261 88.7093 27.277 88.9173 27.277 89.056C27.277 89.952 27.0637 90.672 26.637 91.216C26.221 91.76 25.597 92.032 24.765 92.032H24.077ZM25.613 94.912C25.5597 94.9547 25.4957 94.9707 25.421 94.96C25.3463 94.96 25.277 94.9387 25.213 94.896L24.621 94.288C24.5677 94.2347 24.541 94.1707 24.541 94.096C24.541 94.0213 24.5677 93.9573 24.621 93.904L25.213 93.296C25.277 93.2427 25.341 93.216 25.405 93.216C25.4797 93.216 25.5437 93.2427 25.597 93.296L26.189 93.904C26.253 93.9573 26.285 94.0213 26.285 94.096C26.2957 94.1707 26.269 94.24 26.205 94.304L25.613 94.912ZM27.9902 95.952C27.8622 95.952 27.7716 95.9147 27.7182 95.84C27.6542 95.776 27.6222 95.68 27.6222 95.552V94.864C27.6222 94.736 27.6596 94.64 27.7342 94.576C27.7982 94.5227 27.8942 94.496 28.0222 94.496H28.6463C29.3716 94.496 29.9529 94.3413 30.3903 94.032C30.8276 93.7227 31.1423 93.296 31.3343 92.752C31.5263 92.208 31.6223 91.5733 31.6223 90.848C31.6223 90.304 31.5689 89.8027 31.4623 89.344C31.3556 88.8747 31.2223 88.3733 31.0623 87.84C31.0196 87.648 31.0089 87.504 31.0303 87.408C31.0623 87.3013 31.1583 87.2267 31.3183 87.184L31.9263 87.024C32.0436 86.992 32.1396 87.0027 32.2143 87.056C32.2996 87.1093 32.3689 87.2533 32.4223 87.488C32.5716 88.064 32.6996 88.672 32.8063 89.312C32.9236 89.9413 32.9823 90.5227 32.9823 91.056C32.9823 91.9627 32.8329 92.784 32.5343 93.52C32.2463 94.2667 31.7929 94.8587 31.1743 95.296C30.5663 95.7333 29.7823 95.952 28.8223 95.952H27.9902ZM38.233 92.032H37.945C37.369 92.032 36.8783 91.936 36.473 91.744C36.0677 91.5413 35.753 91.2053 35.529 90.736C35.305 90.2667 35.193 89.616 35.193 88.784V80.4C35.193 80.2827 35.225 80.1867 35.289 80.112C35.3637 80.0373 35.4703 80 35.609 80H36.153C36.2917 80 36.3877 80.0373 36.441 80.112C36.4943 80.176 36.521 80.2613 36.521 80.368V88.512C36.521 89.0773 36.5797 89.504 36.697 89.792C36.825 90.0693 37.017 90.256 37.273 90.352C37.5397 90.448 37.8757 90.496 38.281 90.496H38.473C38.633 90.496 38.713 90.576 38.713 90.736V91.552C38.713 91.872 38.553 92.032 38.233 92.032ZM38.2645 92.032C38.1685 92.032 38.0992 92 38.0565 91.936C38.0138 91.872 37.9925 91.8027 37.9925 91.728V90.848C37.9925 90.6987 38.0352 90.6027 38.1205 90.56C38.2058 90.5173 38.3232 90.496 38.4725 90.496H38.6645C39.1872 90.496 39.5552 90.3573 39.7685 90.08C39.9925 89.8027 40.1045 89.3867 40.1045 88.832C40.1045 88.64 40.0938 88.464 40.0725 88.304C40.0618 88.1333 40.0298 87.952 39.9765 87.76L39.7045 86.544C39.6725 86.4267 39.6832 86.336 39.7365 86.272C39.7898 86.208 39.8752 86.16 39.9925 86.128L40.5685 86C40.8138 85.9467 40.9632 86.0427 41.0165 86.288L41.3045 87.696C41.3578 87.9093 41.3952 88.1547 41.4165 88.432C41.4485 88.7093 41.4645 88.9173 41.4645 89.056C41.4645 89.952 41.2512 90.672 40.8245 91.216C40.4085 91.76 39.7845 92.032 38.9525 92.032H38.2645ZM40.3285 84.624C40.2752 84.6773 40.2112 84.704 40.1365 84.704C40.0618 84.6933 39.9925 84.6613 39.9285 84.608L39.3205 84C39.2672 83.936 39.2405 83.8667 39.2405 83.792C39.2405 83.7173 39.2672 83.6533 39.3205 83.6L39.9285 82.992C39.9925 82.9387 40.0565 82.912 40.1205 82.912C40.1952 82.9013 40.2592 82.928 40.3125 82.992L40.9205 83.6C41.0698 83.7493 41.0752 83.888 40.9365 84.016L40.3285 84.624Z" fill="#EB5D28"/>
<path d="M51.9236 95.696C51.1556 95.696 50.4836 95.5893 49.9076 95.376C49.3423 95.1733 48.873 94.8853 48.4996 94.512C48.1263 94.1493 47.849 93.7227 47.6676 93.232C47.4863 92.7413 47.3956 92.2187 47.3956 91.664C47.3956 91.2053 47.4756 90.72 47.6356 90.208C47.7956 89.6853 48.057 89.152 48.4196 88.608C48.4836 88.5013 48.5583 88.4427 48.6436 88.432C48.729 88.4107 48.8143 88.4213 48.8996 88.464L49.4276 88.704C49.5343 88.7467 49.593 88.8107 49.6036 88.896C49.625 88.9813 49.5983 89.088 49.5236 89.216C49.257 89.632 49.0596 90.016 48.9316 90.368C48.8143 90.72 48.7556 91.104 48.7556 91.52C48.7556 92.0213 48.8676 92.4747 49.0916 92.88C49.3156 93.2853 49.6676 93.6053 50.1476 93.84C50.6276 94.0747 51.2463 94.192 52.0036 94.192H53.3796C54.1476 94.192 54.7716 94.0907 55.2516 93.888C55.7316 93.6853 55.9716 93.36 55.9716 92.912C55.9716 92.624 55.8863 92.3947 55.7156 92.224C55.545 92.064 55.3103 91.984 55.0116 91.984H54.2116C53.9876 91.984 53.8756 91.8667 53.8756 91.632V90.848C53.8756 90.6133 53.9876 90.496 54.2116 90.496H57.3956C57.5556 90.496 57.6356 90.576 57.6356 90.736V91.6C57.6356 91.888 57.481 92.032 57.1716 92.032H56.5636L55.6676 91.184C56.1796 91.3973 56.5583 91.6427 56.8036 91.92C57.049 92.1973 57.1716 92.5333 57.1716 92.928C57.1716 93.2693 57.1023 93.6 56.9636 93.92C56.825 94.2507 56.6063 94.5493 56.3076 94.816C56.009 95.0827 55.6143 95.296 55.1236 95.456C54.6436 95.616 54.0463 95.696 53.3316 95.696H51.9236ZM51.8596 98.24C51.817 98.2933 51.7583 98.3147 51.6836 98.304C51.609 98.304 51.5396 98.2773 51.4756 98.224L50.8836 97.648C50.841 97.5947 50.8196 97.5253 50.8196 97.44C50.8196 97.3653 50.841 97.3067 50.8836 97.264L51.4756 96.672C51.5396 96.608 51.6036 96.576 51.6676 96.576C51.7423 96.576 51.8063 96.608 51.8596 96.672L52.4516 97.264C52.505 97.3067 52.5316 97.3653 52.5316 97.44C52.5423 97.5253 52.521 97.6 52.4676 97.664L51.8596 98.24ZM54.0676 98.24C54.0143 98.2933 53.9503 98.3147 53.8756 98.304C53.8116 98.304 53.7476 98.2773 53.6836 98.224L53.0756 97.648C53.033 97.5947 53.0063 97.5253 52.9956 97.44C52.9956 97.3653 53.0223 97.3067 53.0756 97.264L53.6836 96.672C53.7476 96.608 53.8116 96.576 53.8756 96.576C53.9396 96.576 53.9983 96.608 54.0516 96.672L54.6436 97.264C54.697 97.3067 54.7236 97.3653 54.7236 97.44C54.7343 97.5253 54.713 97.6 54.6596 97.664L54.0676 98.24ZM57.2984 92.032C57.149 92.032 57.0477 92.0053 56.9944 91.952C56.941 91.888 56.9197 91.8187 56.9304 91.744C56.9304 91.6693 56.9304 91.6053 56.9304 91.552V90.896C56.9304 90.7253 56.9517 90.6187 56.9944 90.576C57.037 90.5227 57.1384 90.496 57.2984 90.496H60.8664C61.4637 90.496 61.9277 90.4 62.2584 90.208C62.5997 90.016 62.829 89.6907 62.9464 89.232C63.0744 88.7627 63.1117 88.1227 63.0584 87.312L63.3624 87.648C63.117 87.9893 62.781 88.24 62.3544 88.4C61.9384 88.56 61.517 88.64 61.0904 88.64C60.5677 88.64 60.109 88.5387 59.7144 88.336C59.3304 88.1227 59.037 87.8293 58.8344 87.456C58.6317 87.072 58.5304 86.6293 58.5304 86.128C58.541 85.5947 58.6744 85.12 58.9304 84.704C59.1864 84.288 59.5224 83.9627 59.9384 83.728C60.3544 83.4933 60.797 83.376 61.2664 83.376C61.917 83.376 62.461 83.5467 62.8984 83.888C63.3464 84.2187 63.6877 84.6827 63.9224 85.28C64.157 85.8773 64.2744 86.5653 64.2744 87.344C64.2744 88.0373 64.221 88.672 64.1144 89.248C64.0184 89.824 63.837 90.32 63.5704 90.736C63.3037 91.152 62.925 91.472 62.4344 91.696C61.9544 91.92 61.3357 92.032 60.5784 92.032H57.2984ZM61.1384 87.28C61.4584 87.28 61.789 87.2267 62.1304 87.12C62.4824 87.0027 62.7864 86.8373 63.0424 86.624C63.0104 86.336 62.9197 86.0427 62.7704 85.744C62.621 85.4453 62.4077 85.1947 62.1304 84.992C61.8637 84.7893 61.5277 84.688 61.1224 84.688C60.813 84.688 60.5464 84.7573 60.3224 84.896C60.109 85.0347 59.9437 85.2107 59.8264 85.424C59.7197 85.6373 59.6664 85.84 59.6664 86.032C59.6664 86.448 59.8104 86.7627 60.0984 86.976C60.397 87.1787 60.7437 87.28 61.1384 87.28ZM61.4584 81.616C61.405 81.6693 61.341 81.696 61.2664 81.696C61.1917 81.6853 61.1224 81.6533 61.0584 81.6L60.4504 80.992C60.397 80.928 60.3704 80.8587 60.3704 80.784C60.3704 80.7093 60.397 80.6453 60.4504 80.592L61.0584 79.984C61.1224 79.9307 61.1864 79.904 61.2504 79.904C61.325 79.8933 61.389 79.92 61.4424 79.984L62.0504 80.592C62.1997 80.7413 62.205 80.88 62.0664 81.008L61.4584 81.616ZM74.3359 92.032C73.2692 92.032 72.3892 91.9093 71.6959 91.664C71.0132 91.4187 70.5065 91.0507 70.1759 90.56C69.8452 90.0587 69.6799 89.4347 69.6799 88.688C69.6799 88.368 69.7225 88.0267 69.8079 87.664C69.9039 87.3013 70.0265 86.9387 70.1759 86.576C70.2505 86.4053 70.3199 86.304 70.3839 86.272C70.4479 86.24 70.5439 86.2453 70.6719 86.288L71.1199 86.432C71.2479 86.4747 71.3385 86.5227 71.3919 86.576C71.4559 86.6187 71.4665 86.6987 71.4239 86.816C71.3065 87.1147 71.2052 87.408 71.1199 87.696C71.0345 87.984 70.9919 88.2827 70.9919 88.592C70.9919 89.072 71.1305 89.456 71.4079 89.744C71.6959 90.0213 72.0959 90.2187 72.6079 90.336C73.1199 90.4427 73.7225 90.496 74.4159 90.496H77.2159C77.9839 90.496 78.5652 90.368 78.9599 90.112C79.3545 89.8453 79.5519 89.3547 79.5519 88.64V80.336C79.5519 80.2293 79.5785 80.1493 79.6319 80.096C79.6852 80.032 79.7652 80 79.8719 80H80.5599C80.6772 80 80.7625 80.032 80.8159 80.096C80.8692 80.1493 80.8959 80.2293 80.8959 80.336V88.64C80.8959 89.1307 80.9599 89.5093 81.0879 89.776C81.2159 90.0427 81.4292 90.2293 81.7279 90.336C82.0372 90.4427 82.4479 90.496 82.9599 90.496C83.0559 90.496 83.1252 90.5227 83.1679 90.576C83.2105 90.6187 83.2319 90.6827 83.2319 90.768V91.552C83.2319 91.872 83.0719 92.032 82.7519 92.032C82.4212 92.032 82.0905 91.9947 81.7599 91.92C81.4399 91.8453 81.1359 91.7173 80.8479 91.536C80.5705 91.344 80.3359 91.0827 80.1439 90.752C79.8345 91.2 79.4239 91.5253 78.9119 91.728C78.3999 91.9307 77.7759 92.032 77.0399 92.032H74.3359ZM74.1279 87.392C73.9252 87.392 73.8239 87.2907 73.8239 87.088V86.832C73.8239 86.608 73.9252 86.496 74.1279 86.496H75.9519C76.1972 86.496 76.3199 86.4053 76.3199 86.224C76.3199 86.16 76.2985 86.1013 76.2559 86.048C76.2239 85.9947 76.1545 85.9307 76.0479 85.856L74.9919 85.104C74.8745 85.0293 74.7679 84.9333 74.6719 84.816C74.5865 84.6987 74.5439 84.5493 74.5439 84.368C74.5439 84.1653 74.6025 83.9947 74.7199 83.856C74.8372 83.7067 74.9972 83.5573 75.1999 83.408L76.5439 82.4C76.6399 82.3253 76.7145 82.2933 76.7679 82.304C76.8319 82.304 76.8905 82.3413 76.9439 82.416L77.1359 82.72C77.2105 82.848 77.1839 82.96 77.0559 83.056L75.6799 84.064C75.5519 84.16 75.4879 84.24 75.4879 84.304C75.4879 84.368 75.5039 84.416 75.5359 84.448C75.5785 84.4693 75.6265 84.496 75.6799 84.528L76.4959 85.104C76.8052 85.3173 77.0079 85.5147 77.1039 85.696C77.2105 85.8773 77.2639 86.0747 77.2639 86.288C77.2639 86.6293 77.1519 86.9013 76.9279 87.104C76.7039 87.296 76.3945 87.392 75.9999 87.392H74.1279ZM82.7801 92.032C82.6841 92.032 82.6148 92 82.5721 91.936C82.5295 91.872 82.5081 91.8027 82.5081 91.728V90.848C82.5081 90.6987 82.5508 90.6027 82.6361 90.56C82.7215 90.5173 82.8388 90.496 82.9881 90.496H83.1801C83.7028 90.496 84.0708 90.3573 84.2841 90.08C84.5081 89.8027 84.6201 89.3867 84.6201 88.832C84.6201 88.64 84.6095 88.464 84.5881 88.304C84.5775 88.1333 84.5455 87.952 84.4921 87.76L84.2201 86.544C84.1881 86.4267 84.1988 86.336 84.2521 86.272C84.3055 86.208 84.3908 86.16 84.5081 86.128L85.0841 86C85.3295 85.9467 85.4788 86.0427 85.5321 86.288L85.8201 87.696C85.8735 87.9093 85.9108 88.1547 85.9321 88.432C85.9641 88.7093 85.9801 88.9173 85.9801 89.056C85.9801 89.952 85.7668 90.672 85.3401 91.216C84.9241 91.76 84.3001 92.032 83.4681 92.032H82.7801ZM84.3161 94.912C84.2628 94.9547 84.1988 94.9707 84.1241 94.96C84.0495 94.96 83.9801 94.9387 83.9161 94.896L83.3241 94.288C83.2708 94.2347 83.2441 94.1707 83.2441 94.096C83.2441 94.0213 83.2708 93.9573 83.3241 93.904L83.9161 93.296C83.9801 93.2427 84.0441 93.216 84.1081 93.216C84.1828 93.216 84.2468 93.2427 84.3001 93.296L84.8921 93.904C84.9561 93.9573 84.9881 94.0213 84.9881 94.096C84.9988 94.1707 84.9721 94.24 84.9081 94.304L84.3161 94.912ZM95.6393 92.032H95.3513C94.7753 92.032 94.2846 91.936 93.8793 91.744C93.4739 91.5413 93.1593 91.2053 92.9353 90.736C92.7113 90.2667 92.5993 89.616 92.5993 88.784V80.4C92.5993 80.2827 92.6313 80.1867 92.6953 80.112C92.7699 80.0373 92.8766 80 93.0153 80H93.5593C93.6979 80 93.7939 80.0373 93.8473 80.112C93.9006 80.176 93.9273 80.2613 93.9273 80.368V88.512C93.9273 89.0773 93.9859 89.504 94.1033 89.792C94.2313 90.0693 94.4233 90.256 94.6793 90.352C94.9459 90.448 95.2819 90.496 95.6873 90.496H95.8793C96.0393 90.496 96.1193 90.576 96.1193 90.736V91.552C96.1193 91.872 95.9593 92.032 95.6393 92.032ZM95.6387 92.032C95.4787 92.032 95.3987 91.9467 95.3987 91.776V90.976C95.3987 90.656 95.5587 90.496 95.8788 90.496H96.0868C96.5774 90.496 96.9561 90.3733 97.2228 90.128C97.4894 89.8827 97.6228 89.4187 97.6228 88.736V87.136C97.6228 86.8907 97.7401 86.768 97.9748 86.768H98.5828C98.8174 86.768 98.9348 86.8907 98.9348 87.136V88.736C98.9348 89.4293 99.0894 89.8987 99.3988 90.144C99.7081 90.3787 100.145 90.496 100.711 90.496H100.999C101.159 90.496 101.239 90.576 101.239 90.736V91.552C101.239 91.872 101.079 92.032 100.759 92.032C100.225 92.032 99.7241 91.936 99.2548 91.744C98.7961 91.5413 98.4228 91.168 98.1348 90.624C97.9001 91.1787 97.5534 91.552 97.0948 91.744C96.6361 91.936 96.1508 92.032 95.6387 92.032ZM98.4388 94.88C98.3854 94.9227 98.3214 94.9387 98.2468 94.928C98.1721 94.928 98.1028 94.9067 98.0388 94.864L97.4468 94.256C97.3934 94.2027 97.3668 94.1387 97.3668 94.064C97.3668 93.9893 97.3934 93.9253 97.4468 93.872L98.0388 93.264C98.1028 93.2107 98.1668 93.184 98.2308 93.184C98.3054 93.184 98.3694 93.2107 98.4228 93.264L99.0148 93.872C99.0788 93.9253 99.1108 93.9893 99.1108 94.064C99.1214 94.1387 99.0948 94.208 99.0308 94.272L98.4388 94.88ZM100.764 92.032C100.604 92.032 100.524 91.952 100.524 91.792V90.976C100.524 90.656 100.684 90.496 101.004 90.496H103.164C103.793 90.496 104.358 90.448 104.86 90.352C105.372 90.256 105.852 90.1173 106.3 89.936C106.748 89.744 107.201 89.5093 107.66 89.232L109.196 88.32L110.428 88.864L107.836 90.48C107.473 90.7147 107.132 90.9227 106.812 91.104C106.492 91.2853 106.15 91.4453 105.788 91.584C105.425 91.7227 105.009 91.8347 104.54 91.92C104.081 91.9947 103.537 92.032 102.908 92.032H100.764ZM110.012 89.072V88.944C109.436 88.944 108.934 88.8907 108.508 88.784C108.081 88.6773 107.702 88.544 107.372 88.384C107.041 88.224 106.732 88.064 106.444 87.904C106.156 87.744 105.857 87.6107 105.548 87.504C105.238 87.3867 104.892 87.328 104.508 87.328C104.145 87.328 103.868 87.392 103.676 87.52C103.494 87.648 103.345 87.8027 103.228 87.984C103.153 88.08 103.084 88.1547 103.02 88.208C102.966 88.2507 102.87 88.272 102.732 88.272H102.332C102.065 88.272 101.932 88.16 101.932 87.936C101.932 87.6373 102.028 87.3387 102.22 87.04C102.412 86.7413 102.7 86.4907 103.084 86.288C103.478 86.0747 103.969 85.968 104.556 85.968C105.004 85.968 105.404 86.0267 105.756 86.144C106.118 86.2613 106.46 86.4053 106.78 86.576C107.11 86.736 107.436 86.9013 107.756 87.072C108.086 87.2427 108.438 87.3867 108.812 87.504C109.196 87.6213 109.633 87.68 110.124 87.68H110.892C111.052 87.68 111.153 87.712 111.196 87.776C111.238 87.8293 111.26 87.936 111.26 88.096V88.688C111.26 88.8053 111.222 88.9013 111.148 88.976C111.084 89.04 110.993 89.072 110.876 89.072H110.012ZM111.615 95.952C111.487 95.952 111.397 95.9147 111.343 95.84C111.279 95.776 111.247 95.68 111.247 95.552V94.864C111.247 94.736 111.285 94.64 111.359 94.576C111.423 94.5227 111.519 94.496 111.647 94.496H112.191C113.258 94.496 114.037 94.192 114.527 93.584C115.029 92.9867 115.279 92.1653 115.279 91.12C115.279 90.7573 115.247 90.384 115.183 90C115.119 89.6053 115.039 89.2053 114.943 88.8L114.671 87.664C114.639 87.5467 114.639 87.4507 114.671 87.376C114.714 87.2907 114.81 87.2267 114.959 87.184L115.519 87.04C115.637 87.0187 115.722 87.0187 115.775 87.04C115.829 87.0613 115.871 87.0987 115.903 87.152C115.935 87.2053 115.962 87.2693 115.983 87.344L116.431 89.184C116.517 89.5253 116.661 89.792 116.863 89.984C117.066 90.176 117.295 90.3093 117.551 90.384C117.807 90.4587 118.063 90.496 118.319 90.496H118.639C118.821 90.496 118.911 90.576 118.911 90.736V91.552C118.911 91.872 118.751 92.032 118.431 92.032C117.973 92.032 117.562 91.9787 117.199 91.872C116.837 91.7653 116.597 91.632 116.479 91.472C116.458 92.0267 116.373 92.5707 116.223 93.104C116.085 93.6373 115.85 94.1173 115.519 94.544C115.199 94.9707 114.773 95.312 114.239 95.568C113.706 95.824 113.039 95.952 112.239 95.952H111.615ZM124.276 92.128C124.03 92.128 123.801 92.1067 123.588 92.064C123.374 92.032 123.145 91.9733 122.9 91.888C122.665 91.792 122.382 91.6587 122.052 91.488C121.721 91.3067 121.305 91.072 120.804 90.784C120.548 91.1573 120.286 91.4347 120.02 91.616C119.753 91.7867 119.486 91.8987 119.22 91.952C118.964 92.0053 118.702 92.032 118.436 92.032C118.276 92.032 118.196 91.952 118.196 91.792V90.976C118.196 90.656 118.356 90.496 118.676 90.496C118.9 90.496 119.097 90.464 119.268 90.4C119.438 90.336 119.614 90.2027 119.796 90C119.988 89.7973 120.206 89.4773 120.452 89.04C120.868 88.3253 121.252 87.7813 121.604 87.408C121.966 87.0347 122.318 86.7787 122.66 86.64C123.001 86.5013 123.353 86.432 123.716 86.432C124.217 86.432 124.681 86.5707 125.108 86.848C125.545 87.1147 125.892 87.4827 126.148 87.952C126.404 88.4107 126.532 88.9493 126.532 89.568C126.532 89.9627 126.478 90.32 126.372 90.64C126.265 90.96 126.11 91.232 125.908 91.456C125.705 91.68 125.465 91.8507 125.188 91.968C124.91 92.0747 124.606 92.128 124.276 92.128ZM124.324 90.704C124.569 90.704 124.777 90.6293 124.948 90.48C125.129 90.3307 125.22 90.0427 125.22 89.616C125.23 89.2533 125.156 88.9387 124.996 88.672C124.846 88.4053 124.644 88.1973 124.388 88.048C124.142 87.888 123.876 87.808 123.588 87.808C123.385 87.808 123.182 87.8507 122.98 87.936C122.788 88.0213 122.574 88.1867 122.34 88.432C122.116 88.6773 121.849 89.056 121.54 89.568C122.094 89.8987 122.532 90.1493 122.852 90.32C123.182 90.48 123.454 90.5867 123.668 90.64C123.892 90.6827 124.11 90.704 124.324 90.704Z" fill="#090012"/>
</svg>
