<svg width="22" height="22" viewBox="0 0 22 22" fill="none" xmlns="http://www.w3.org/2000/svg">
<path d="M12.0198 20.7832C17.0636 18.4719 21 14.6442 21 9.99028C21 5.02697 16.5228 1.00342 11 1.00342C5.47715 1.00342 1 5.02697 1 9.99028C1 14.6442 4.93636 18.4719 9.98017 20.7832C10.621 21.0768 11.379 21.0768 12.0198 20.7832Z" stroke="#F25D25" stroke-linecap="round" stroke-linejoin="round"/>
<path d="M14.75 9.99028C14.75 11.8515 13.0711 13.3604 11 13.3604C8.92893 13.3604 7.25 11.8515 7.25 9.99028C7.25 8.12904 8.92893 6.62021 11 6.62021C13.0711 6.62021 14.75 8.12904 14.75 9.99028Z" stroke="#F25D25" stroke-linecap="round" stroke-linejoin="round"/>
</svg>
