<svg width="13" height="14" viewBox="0 0 13 14" fill="none" xmlns="http://www.w3.org/2000/svg">
<g clip-path="url(#clip0_1274_6005)">
<path d="M12.8065 7.29823C12.8065 6.75564 12.7635 6.3597 12.6702 5.9491H6.6055V8.39806H10.1653C10.0936 9.00666 9.70602 9.9232 8.84475 10.5391L8.83268 10.6211L10.7502 12.1387L10.8831 12.1522C12.1032 11.001 12.8065 9.30727 12.8065 7.29823" fill="#4285F4"/>
<path d="M6.60549 13.7507C8.34951 13.7507 9.81363 13.1641 10.8831 12.1523L8.84474 10.5391C8.29929 10.9277 7.56721 11.199 6.60549 11.199C4.89734 11.199 3.44757 10.0479 2.93077 8.45679L2.85502 8.46336L0.861128 10.0398L0.835052 10.1139C1.89726 12.2695 4.07911 13.7507 6.60549 13.7507Z" fill="#34A853"/>
<path d="M2.93076 8.45688C2.7944 8.04628 2.71548 7.6063 2.71548 7.15172C2.71548 6.69709 2.7944 6.25717 2.92359 5.84657L2.91997 5.75912L0.9011 4.15735L0.835046 4.18945C0.39726 5.084 0.146057 6.08854 0.146057 7.15172C0.146057 8.2149 0.39726 9.2194 0.835046 10.1139L2.93076 8.45688" fill="#FBBC05"/>
<path d="M6.60549 3.10411C7.81841 3.10411 8.63659 3.63937 9.10312 4.08667L10.9261 2.26825C9.80651 1.20507 8.34951 0.55249 6.60549 0.55249C4.07911 0.55249 1.89726 2.0336 0.835052 4.18928L2.92359 5.8464C3.44757 4.2553 4.89734 3.10411 6.60549 3.10411" fill="#EB4335"/>
</g>
<defs>
<clipPath id="clip0_1274_6005">
<rect x="0.146057" y="0.533691" width="12.6605" height="13.236" rx="6.33024" fill="white"/>
</clipPath>
</defs>
</svg>
