<svg width="24" height="24" viewBox="0 0 24 24" fill="none" xmlns="http://www.w3.org/2000/svg">
<g clip-path="url(#clip0_1058_3083)">
<path d="M3.5 7.5H6.5M2.375 10.5H7.625M10 9.69C11.115 8.6345 12.5102 7.92215 14.019 7.63798C15.5279 7.35381 17.0866 7.50983 18.5092 8.08741C19.9318 8.66499 21.1581 9.63974 22.0418 10.8953C22.9255 12.1509 23.4292 13.6342 23.4928 15.1682C23.5565 16.7023 23.1773 18.2222 22.4006 19.5467C21.6239 20.8711 20.4825 21.944 19.1127 22.6374C17.7428 23.3308 16.2023 23.6154 14.6752 23.4572C13.148 23.2989 11.6986 22.7045 10.5 21.745M5 0.5C5.3283 0.5 5.65339 0.564664 5.95671 0.690301C6.26002 0.815938 6.53562 1.00009 6.76777 1.23223C6.99991 1.46438 7.18406 1.73998 7.3097 2.04329C7.43533 2.34661 7.5 2.6717 7.5 3C7.5 4.46 6.5 5.859 6.5 7.319V7.399C6.5 8.439 6.837 9.449 7.46 10.281L7.684 10.579C8.56466 11.7533 9.14752 13.1235 9.38264 14.5724C9.61776 16.0212 9.49813 17.5055 9.034 18.898L7.5 23.5H2.5L0.965999 18.898C0.501697 17.5054 0.381978 16.0209 0.617099 14.5719C0.852221 13.1228 1.43517 11.7524 2.316 10.578L2.54 10.281C3.163 9.449 3.5 8.438 3.5 7.399V7.319C3.5 5.859 2.5 4.459 2.5 3C2.5 2.33696 2.76339 1.70107 3.23223 1.23223C3.70107 0.763392 4.33696 0.5 5 0.5ZM17.5 13C17.2348 13 16.9804 12.8946 16.7929 12.7071C16.6054 12.5196 16.5 12.2652 16.5 12C16.5 11.7348 16.6054 11.4804 16.7929 11.2929C16.9804 11.1054 17.2348 11 17.5 11C17.7652 11 18.0196 11.1054 18.2071 11.2929C18.3946 11.4804 18.5 11.7348 18.5 12C18.5 12.2652 18.3946 12.5196 18.2071 12.7071C18.0196 12.8946 17.7652 13 17.5 13ZM15.5 16.5C15.2348 16.5 14.9804 16.3946 14.7929 16.2071C14.6054 16.0196 14.5 15.7652 14.5 15.5C14.5 15.2348 14.6054 14.9804 14.7929 14.7929C14.9804 14.6054 15.2348 14.5 15.5 14.5C15.7652 14.5 16.0196 14.6054 16.2071 14.7929C16.3946 14.9804 16.5 15.2348 16.5 15.5C16.5 15.7652 16.3946 16.0196 16.2071 16.2071C16.0196 16.3946 15.7652 16.5 15.5 16.5ZM19.5 16.5C19.2348 16.5 18.9804 16.3946 18.7929 16.2071C18.6054 16.0196 18.5 15.7652 18.5 15.5C18.5 15.2348 18.6054 14.9804 18.7929 14.7929C18.9804 14.6054 19.2348 14.5 19.5 14.5C19.7652 14.5 20.0196 14.6054 20.2071 14.7929C20.3946 14.9804 20.5 15.2348 20.5 15.5C20.5 15.7652 20.3946 16.0196 20.2071 16.2071C20.0196 16.3946 19.7652 16.5 19.5 16.5Z" stroke="#090012"/>
</g>
<defs>
<clipPath id="clip0_1058_3083">
<rect width="24" height="24" fill="white"/>
</clipPath>
</defs>
</svg>
