<svg width="284" height="284" viewBox="0 0 284 284" fill="none" xmlns="http://www.w3.org/2000/svg">
<g filter="url(#filter0_d_1403_4445)">
<circle cx="142" cy="138" r="134" fill="#F6F6F6" fill-opacity="0.5" shape-rendering="crispEdges"/>
</g>
<circle cx="142" cy="138" r="121" stroke="url(#paint0_radial_1403_4445)" stroke-opacity="0.8" stroke-width="4"/>
<g filter="url(#filter1_d_1403_4445)">
<path d="M209 138C209 175.003 179.003 205 142 205C104.997 205 75 175.003 75 138C75 100.997 104.997 71 142 71C179.003 71 209 100.997 209 138Z" fill="white" fill-opacity="0.8" shape-rendering="crispEdges"/>
</g>
<g filter="url(#filter2_d_1403_4445)">
<path d="M175 138C175 156.225 160.225 171 142 171C123.775 171 109 156.225 109 138C109 119.775 123.775 105 142 105C160.225 105 175 119.775 175 138Z" fill="#F05D25"/>
</g>
<path d="M156.21 140.305L152.5 144.033L148.79 140.305L146.305 142.79L150.032 146.5L146.305 150.21L148.79 152.695L152.5 148.968L156.21 152.695L158.695 150.21L154.967 146.5L158.695 142.79M142 118.5C140.075 118.5 138.5 120.075 138.5 122V122.508C133.46 123.995 129.75 128.685 129.75 134.25V144.75L126.25 148.25V150H142.612C142.209 148.877 142.001 147.693 142 146.5H133.25V134.25C133.25 131.929 134.172 129.704 135.813 128.063C137.454 126.422 139.679 125.5 142 125.5C144.321 125.5 146.546 126.422 148.187 128.063C149.828 129.704 150.75 131.929 150.75 134.25V136.158C151.327 136.07 151.905 136 152.5 136C153.095 136 153.672 136.053 154.25 136.158V134.25C154.25 128.685 150.54 123.995 145.5 122.508V122C145.5 121.072 145.131 120.182 144.475 119.525C143.818 118.869 142.928 118.5 142 118.5ZM138.5 151.75C138.5 152.497 138.739 153.225 139.183 153.827C139.627 154.428 140.251 154.872 140.965 155.093C141.679 155.314 142.445 155.301 143.151 155.055C143.856 154.809 144.465 154.344 144.887 153.728C144.327 153.132 143.837 152.468 143.417 151.75H138.5Z" fill="#FCFCFC"/>
<defs>
<filter id="filter0_d_1403_4445" x="0" y="0" width="284" height="284" filterUnits="userSpaceOnUse" color-interpolation-filters="sRGB">
<feFlood flood-opacity="0" result="BackgroundImageFix"/>
<feColorMatrix in="SourceAlpha" type="matrix" values="0 0 0 0 0 0 0 0 0 0 0 0 0 0 0 0 0 0 127 0" result="hardAlpha"/>
<feOffset dy="4"/>
<feGaussianBlur stdDeviation="4"/>
<feComposite in2="hardAlpha" operator="out"/>
<feColorMatrix type="matrix" values="0 0 0 0 0 0 0 0 0 0 0 0 0 0 0 0 0 0 0.1 0"/>
<feBlend mode="normal" in2="BackgroundImageFix" result="effect1_dropShadow_1403_4445"/>
<feBlend mode="normal" in="SourceGraphic" in2="effect1_dropShadow_1403_4445" result="shape"/>
</filter>
<filter id="filter1_d_1403_4445" x="67" y="67" width="150" height="150" filterUnits="userSpaceOnUse" color-interpolation-filters="sRGB">
<feFlood flood-opacity="0" result="BackgroundImageFix"/>
<feColorMatrix in="SourceAlpha" type="matrix" values="0 0 0 0 0 0 0 0 0 0 0 0 0 0 0 0 0 0 127 0" result="hardAlpha"/>
<feOffset dy="4"/>
<feGaussianBlur stdDeviation="4"/>
<feComposite in2="hardAlpha" operator="out"/>
<feColorMatrix type="matrix" values="0 0 0 0 0 0 0 0 0 0 0 0 0 0 0 0 0 0 0.1 0"/>
<feBlend mode="normal" in2="BackgroundImageFix" result="effect1_dropShadow_1403_4445"/>
<feBlend mode="normal" in="SourceGraphic" in2="effect1_dropShadow_1403_4445" result="shape"/>
</filter>
<filter id="filter2_d_1403_4445" x="101" y="101" width="82" height="82" filterUnits="userSpaceOnUse" color-interpolation-filters="sRGB">
<feFlood flood-opacity="0" result="BackgroundImageFix"/>
<feColorMatrix in="SourceAlpha" type="matrix" values="0 0 0 0 0 0 0 0 0 0 0 0 0 0 0 0 0 0 127 0" result="hardAlpha"/>
<feOffset dy="4"/>
<feGaussianBlur stdDeviation="4"/>
<feComposite in2="hardAlpha" operator="out"/>
<feColorMatrix type="matrix" values="0 0 0 0 0 0 0 0 0 0 0 0 0 0 0 0 0 0 0.1 0"/>
<feBlend mode="normal" in2="BackgroundImageFix" result="effect1_dropShadow_1403_4445"/>
<feBlend mode="normal" in="SourceGraphic" in2="effect1_dropShadow_1403_4445" result="shape"/>
</filter>
<radialGradient id="paint0_radial_1403_4445" cx="0" cy="0" r="1" gradientUnits="userSpaceOnUse" gradientTransform="translate(32.5 28) rotate(52.0913) scale(297.849)">
<stop stop-color="#F25D25" stop-opacity="0.55"/>
<stop offset="1" stop-color="#F25D25" stop-opacity="0"/>
</radialGradient>
</defs>
</svg>
