<svg width="10" height="10" viewBox="0 0 10 10" fill="none" xmlns="http://www.w3.org/2000/svg">
<path d="M5.40793 8.91191C7.42546 7.98737 9 6.45631 9 4.59474C9 2.60942 7.20914 1 5 1C2.79086 1 1 2.60942 1 4.59474C1 6.45631 2.57454 7.98737 4.59207 8.91191C4.84839 9.02937 5.15161 9.02937 5.40793 8.91191Z" stroke="#F25D25" stroke-width="0.4" stroke-linecap="round" stroke-linejoin="round"/>
<path d="M6.5 4.59474C6.5 5.33924 5.82843 5.94277 5 5.94277C4.17157 5.94277 3.5 5.33924 3.5 4.59474C3.5 3.85025 4.17157 3.24672 5 3.24672C5.82843 3.24672 6.5 3.85025 6.5 4.59474Z" stroke="#F25D25" stroke-width="0.4" stroke-linecap="round" stroke-linejoin="round"/>
</svg>
