<svg width="12" height="12" viewBox="0 0 12 12" fill="none" xmlns="http://www.w3.org/2000/svg">
<path opacity="0.4" d="M1.17017 5.50326C1.17017 3.04616 3.23822 1.03125 5.67647 1.03125C8.11472 1.03125 10.1828 3.04616 10.1828 5.50326C10.1828 6.75735 9.6514 7.81178 8.90557 8.68217C8.1627 9.54913 7.19498 10.2485 6.28586 10.8048L6.28064 10.808L6.27532 10.811C6.09262 10.9141 5.8863 10.9682 5.67647 10.9682C5.46664 10.9682 5.26032 10.9141 5.07762 10.811L5.07151 10.8076L5.06555 10.8039C4.15973 10.2431 3.19221 9.54599 2.44898 8.68157C1.70254 7.8134 1.17017 6.76151 1.17017 5.50326Z" fill="#6A656E"/>
<path d="M3.8277 5.5377C3.8277 4.51667 4.65541 3.68896 5.67644 3.68896C6.69745 3.68896 7.52518 4.51667 7.52518 5.5377C7.52518 6.55872 6.69745 7.38644 5.67644 7.38644C4.65541 7.38644 3.8277 6.55872 3.8277 5.5377Z" fill="#6A656E"/>
</svg>
