<svg width="23" height="23" viewBox="0 0 23 23" fill="none" xmlns="http://www.w3.org/2000/svg">
<path opacity="0.4" fill-rule="evenodd" clip-rule="evenodd" d="M5.1712 15.1597C5.1712 11.4878 8.14782 8.51123 11.8197 8.51123C15.4915 8.51123 18.4681 11.4878 18.4681 15.1597C18.4681 18.8316 15.4915 21.8081 11.8197 21.8081C8.14782 21.8081 5.1712 18.8316 5.1712 15.1597Z" fill="#090012"/>
<path d="M15.4224 3.35014C15.6105 2.87989 15.3818 2.34621 14.9115 2.15812C14.4413 1.97003 13.9077 2.19874 13.7196 2.66898L12.8026 4.96156C12.6144 5.43179 12.8432 5.96547 13.3133 6.15356C13.7836 6.34167 14.3173 6.11294 14.5054 5.64271L15.4224 3.35014Z" fill="#090012"/>
<path d="M10.3702 2.64831C10.1707 2.1828 9.63159 1.96716 9.16608 2.16666C8.70057 2.36616 8.48493 2.90527 8.68443 3.37078L10.9138 8.57268C11.21 8.53232 11.5124 8.51148 11.8197 8.51148C12.1952 8.51148 12.5634 8.54261 12.9219 8.60243L10.3702 2.64831Z" fill="#090012"/>
<path d="M15.6564 9.72963C15.1591 9.37761 14.6112 9.09218 14.026 8.88634L16.9495 2.62173C17.1636 2.16279 17.7093 1.96436 18.1682 2.17853C18.6272 2.39272 18.8256 2.93838 18.6114 3.39733L15.6564 9.72963Z" fill="#090012"/>
<path d="M7.98317 9.7294L5.02821 3.39733C4.81403 2.93838 5.01246 2.39272 5.4714 2.17853C5.93035 1.96436 6.47602 2.16279 6.6902 2.62173L9.61362 8.88621C9.02832 9.09201 8.48051 9.37741 7.98317 9.7294Z" fill="#090012"/>
<path fill-rule="evenodd" clip-rule="evenodd" d="M12.1814 12.2819C12.3842 12.4073 12.5076 12.6286 12.5076 12.867V16.7643H12.7369C13.1167 16.7643 13.4246 17.0723 13.4246 17.4521C13.4246 17.8319 13.1167 18.1399 12.7369 18.1399H10.9028C10.523 18.1399 10.215 17.8319 10.215 17.4521C10.215 17.0723 10.523 16.7643 10.9028 16.7643H11.1321V13.974C10.8095 14.0885 10.4447 13.947 10.2876 13.6331C10.1177 13.2933 10.2555 12.8802 10.5952 12.7103L11.5123 12.2518C11.7254 12.1452 11.9787 12.1566 12.1814 12.2819Z" fill="#090012"/>
</svg>
