<svg width="26" height="26" viewBox="0 0 26 26" fill="none" xmlns="http://www.w3.org/2000/svg">
<path d="M18.4167 7.58317V11.9165C18.4167 14.908 15.9916 17.3332 13 17.3332C10.0085 17.3332 7.58337 14.908 7.58337 11.9165V7.58317C7.58337 4.59163 10.0085 2.1665 13 2.1665C15.9916 2.1665 18.4167 4.59163 18.4167 7.58317Z" stroke="#77727B" stroke-width="1.5"/>
<path d="M18.4166 7.5835H15.1666M18.4166 11.9168H15.1666" stroke="#77727B" stroke-width="1.5" stroke-linecap="round"/>
<path d="M21.6667 11.9165C21.6667 16.703 17.7865 20.5832 13 20.5832M13 20.5832C8.21357 20.5832 4.33337 16.703 4.33337 11.9165M13 20.5832V23.8332M13 23.8332H16.25M13 23.8332H9.75004" stroke="#77727B" stroke-width="1.5" stroke-linecap="round"/>
</svg>
