<svg width="24" height="24" viewBox="0 0 24 24" fill="none" xmlns="http://www.w3.org/2000/svg">
<path d="M2.52992 14.394C2.31727 15.7471 3.268 16.6862 4.43205 17.1542C8.89481 18.9486 15.1052 18.9486 19.5679 17.1542C20.732 16.6862 21.6827 15.7471 21.4701 14.394C21.3394 13.5625 20.6932 12.8701 20.2144 12.194C19.5873 11.2975 19.525 10.3197 19.5249 9.27941C19.5249 5.2591 16.1559 2 12 2C7.84413 2 4.47513 5.2591 4.47513 9.27941C4.47503 10.3197 4.41272 11.2975 3.78561 12.194C3.30684 12.8701 2.66061 13.5625 2.52992 14.394Z" stroke="#FCFCFC" stroke-width="1.5" stroke-linecap="round" stroke-linejoin="round"/>
<path d="M9 21C9.79613 21.6219 10.8475 22 12 22C13.1525 22 14.2039 21.6219 15 21" stroke="#FCFCFC" stroke-width="1.5" stroke-linecap="round" stroke-linejoin="round"/>
<circle cx="18" cy="4" r="3" fill="#FFD57D"/>
<path d="M18.354 5.25C18.3273 5.25 18.3047 5.242 18.286 5.226C18.27 5.20733 18.262 5.18467 18.262 5.158V2.918L17.598 3.43C17.5767 3.446 17.554 3.45267 17.53 3.45C17.506 3.44733 17.486 3.43533 17.47 3.414L17.366 3.282C17.35 3.258 17.3433 3.234 17.346 3.21C17.3513 3.186 17.3647 3.166 17.386 3.15L18.258 2.478C18.2767 2.46467 18.294 2.45667 18.31 2.454C18.326 2.45133 18.3433 2.45 18.362 2.45H18.566C18.5927 2.45 18.614 2.45933 18.63 2.478C18.646 2.494 18.654 2.51533 18.654 2.542V5.158C18.654 5.18467 18.646 5.20733 18.63 5.226C18.614 5.242 18.5927 5.25 18.566 5.25H18.354Z" fill="#5B5064"/>
</svg>
