<svg width="12" height="12" viewBox="0 0 12 12" fill="none" xmlns="http://www.w3.org/2000/svg">
<path d="M8.63727 7.31123C8.69102 7.34321 8.75743 7.38069 8.83263 7.42312C9.16208 7.60897 9.66008 7.88993 10.0013 8.22386C10.2146 8.43272 10.4174 8.70795 10.4542 9.04516C10.4934 9.40372 10.337 9.74024 10.0232 10.0392C9.48172 10.555 8.83198 10.9684 7.99159 10.9684H3.91594C3.07554 10.9684 2.42581 10.555 1.88438 10.0392C1.57055 9.74024 1.41412 9.40372 1.45332 9.04516C1.49017 8.70795 1.69291 8.43272 1.90629 8.22386C2.24746 7.88993 2.74547 7.60897 3.07492 7.42312C3.1501 7.38074 3.21651 7.34321 3.27026 7.31123C4.91289 6.33311 6.99466 6.33311 8.63727 7.31123Z" fill="#6A656E"/>
<path opacity="0.4" d="M3.52734 3.45772C3.52734 2.11762 4.61371 1.03125 5.95381 1.03125C7.29392 1.03125 8.38028 2.11762 8.38028 3.45772C8.38028 4.79782 7.29392 5.88419 5.95381 5.88419C4.61371 5.88419 3.52734 4.79782 3.52734 3.45772Z" fill="#6A656E"/>
</svg>
