<svg width="18" height="18" viewBox="0 0 18 18" fill="none" xmlns="http://www.w3.org/2000/svg">
<path d="M2.25 0C1.01625 0 0 1.01625 0 2.25C0 3.48375 1.01625 4.5 2.25 4.5C3.48375 4.5 4.5 3.48375 4.5 2.25C4.5 1.01625 3.48375 0 2.25 0ZM11.2035 0.6795C10.9683 0.683232 10.7335 0.699254 10.5 0.7275C8.64825 0.94425 6.92025 1.893 5.60175 3.2115C4.6755 4.134 3.90825 5.4615 3.65625 7.92225C3.64734 7.94535 3.63958 7.96888 3.633 7.99275V8.016C3.61395 8.05384 3.59815 8.09324 3.58575 8.13375C3.58275 8.151 3.58875 8.16 3.58575 8.18025V8.274C3.59246 8.37118 3.61633 8.4664 3.65625 8.55525C3.69375 9.2295 3.78825 9.918 4.03125 10.5712H4.008C4.01925 10.6357 4.09575 10.9575 4.10175 11.274C4.10475 11.5117 4.01925 11.7285 4.008 11.79C3.5505 12.2437 3.003 12.7185 2.48475 13.1257C1.9665 13.533 1.51725 13.8847 1.19475 14.2042H1.17225C0.979476 14.4073 0.838315 14.6537 0.760655 14.9227C0.682995 15.1917 0.67111 15.4754 0.726 15.75C0.84 16.275 1.1415 16.7288 1.54575 17.133C1.94775 17.5343 2.4045 17.8328 2.92875 17.9528C3.453 18.0728 4.089 17.9182 4.49925 17.508C4.82775 17.1795 5.14425 16.7167 5.55375 16.1955C5.964 15.6735 6.42975 15.108 6.8895 14.6483C6.837 14.7008 7.06575 14.5785 7.359 14.5785C7.596 14.5785 7.7925 14.601 7.944 14.625C7.983 14.631 8.06175 14.6453 8.085 14.6483C8.73825 14.8912 9.4275 14.9827 10.101 15.0233C10.1093 15.0233 10.116 15.0472 10.1243 15.0472C10.1778 15.0608 10.2325 15.0683 10.2885 15.0697C10.3113 15.0789 10.3346 15.0869 10.3583 15.0938H10.5C10.547 15.0903 10.594 15.0825 10.641 15.0705C10.6702 15.0675 10.6815 15.0495 10.7108 15.0465H10.7347C12.993 14.859 14.5072 14.0415 15.4688 13.0778C16.7873 11.76 17.736 10.0312 17.9535 8.18025C18.1702 6.32775 17.5928 4.35075 15.9608 2.71875C14.5343 1.29225 12.8438 0.66825 11.2035 0.6795ZM2.25 1.5C2.67225 1.5 3 1.8285 3 2.25C3 2.6715 2.6715 3 2.25 3C1.8285 3 1.5 2.6715 1.5 2.25C1.5 1.8285 1.8285 1.5 2.25 1.5ZM11.2035 2.1795C12.4688 2.15625 13.737 2.60475 14.9062 3.77325C16.245 5.109 16.6238 6.57075 16.4535 8.01525C16.2832 9.45975 15.5243 10.9132 14.4135 12.0233C13.6673 12.7703 12.5835 13.3538 10.6875 13.5233L5.15625 7.992C5.376 5.877 5.89725 5.0715 6.6795 4.28925C7.7895 3.17925 9.21675 2.39625 10.6642 2.22675C10.8457 2.20575 11.022 2.1825 11.2035 2.1795ZM5.50725 10.5L8.17875 13.1483C7.9078 13.1012 7.63326 13.0778 7.35825 13.0785C6.9015 13.0807 6.32175 13.1077 5.83575 13.5938C5.31896 14.1194 4.83361 14.6752 4.38225 15.258C3.963 15.7905 3.591 16.2833 3.4215 16.4528C3.333 16.5413 3.3765 16.5263 3.2565 16.5C3.1365 16.4737 2.8935 16.3245 2.62425 16.0545C2.36025 15.7913 2.229 15.5475 2.202 15.4222C2.17575 15.2962 2.1495 15.3308 2.226 15.2572C2.3835 15.0998 2.86125 14.7188 3.3975 14.2972C3.93375 13.8757 4.54575 13.3822 5.085 12.8438C5.604 12.3255 5.61 11.7247 5.601 11.25C5.595 10.89 5.5395 10.6785 5.50725 10.5Z" fill="#090012"/>
</svg>
