<svg width="24" height="24" viewBox="0 0 24 24" fill="none" xmlns="http://www.w3.org/2000/svg">
<path fill-rule="evenodd" clip-rule="evenodd" d="M20.0327 2.36797C19.4928 2.05362 18.8858 1.8489 18.2431 1.757L16.536 3.46419L15.1953 2.12341C14.6588 2.32575 14.1298 2.60153 13.6235 2.95231L15.3357 4.66456L13.3352 6.66518L11.6232 4.95309C11.2725 5.45945 10.9968 5.98865 10.7946 6.52517L12.1349 7.86555L10.4287 9.57186C10.5206 10.2146 10.7253 10.8217 11.0396 11.3616L13.3352 9.06592L14.9356 10.6664L12.6403 12.9619C13.1804 13.2761 13.7875 13.4806 14.4304 13.5724L16.1359 11.8668L17.4752 13.2062C18.0117 13.0039 18.5409 12.7283 19.0472 12.3775L17.3362 10.6664L19.3367 8.6658L21.0479 10.3771C21.3986 9.87081 21.6744 9.34169 21.8767 8.80524L20.537 7.46543L22.2433 5.75897C22.1516 5.11608 21.9471 4.50885 21.6329 3.96872L19.3367 6.26506L17.7363 4.66456L20.0327 2.36797ZM22.1373 1.86276C19.2852 -0.989587 14.4408 -0.443336 11.3346 2.66301C9.60352 4.39421 8.66752 6.66531 8.67177 8.83056C8.47454 10.1667 8.04712 11.933 7.59852 13.4465C7.3707 14.2152 7.14187 14.9035 6.94126 15.4247C6.84058 15.6863 6.75143 15.8942 6.67735 16.0445C6.63008 16.1404 6.6 16.1895 6.5886 16.2081C6.58738 16.2101 6.58637 16.2118 6.58558 16.2131C6.58448 16.2149 6.5838 16.2161 6.58354 16.2167L4.92569 17.8708C4.89715 17.8727 4.86841 17.8757 4.83951 17.8798L3.90594 18.0132C3.66355 18.0478 3.43892 18.1601 3.26578 18.3333L0.331454 21.2678C-0.110485 21.7097 -0.110485 22.4263 0.331454 22.8683L1.13166 23.6685C1.5736 24.1105 2.29012 24.1105 2.73206 23.6685L5.66639 20.734C5.83953 20.5609 5.95184 20.3362 5.98647 20.0938L6.11983 19.1602C6.12426 19.1292 6.1274 19.0984 6.1293 19.0678L7.78365 17.4173C7.78437 17.4171 7.7872 17.4154 7.79252 17.4121C7.81115 17.4007 7.8603 17.3706 7.95616 17.3234C8.1064 17.2493 8.3143 17.1601 8.57587 17.0594C9.09707 16.8588 9.78534 16.63 10.5539 16.4021C12.0667 15.9537 13.832 15.5265 15.1679 15.3291C17.3336 15.3339 19.6055 14.3979 21.3371 12.6661C24.4433 9.55976 24.9895 4.71512 22.1373 1.86276ZM9.22601 13.929C9.3736 13.4311 9.52008 12.9031 9.65804 12.368C9.90284 12.7582 10.1945 13.1264 10.5344 13.4664C10.8742 13.8062 11.2423 14.0978 11.6324 14.3425C11.0973 14.4805 10.5694 14.627 10.0715 14.7746C9.6365 14.9035 9.21985 15.0346 8.83728 15.1633C8.96593 14.7807 9.09706 14.364 9.22601 13.929ZM16.536 5.86494L14.5355 7.86555L16.1359 9.46605L18.1364 7.46543L16.536 5.86494Z" fill="#090012"/>
</svg>
