<svg width="23" height="23" viewBox="0 0 23 23" fill="none" xmlns="http://www.w3.org/2000/svg">
<path fill-rule="evenodd" clip-rule="evenodd" d="M15.2664 3.8358C15.6959 4.10423 15.8264 4.66999 15.558 5.09947L6.38773 19.7719C6.1193 20.2014 5.55354 20.332 5.12406 20.0636C4.69458 19.7951 4.56402 19.2293 4.83245 18.7999L14.0027 4.12742C14.2712 3.69794 14.837 3.56738 15.2664 3.8358Z" fill="#77727B"/>
<path fill-rule="evenodd" clip-rule="evenodd" d="M3.67934 4.2039C3.45284 3.7509 2.90201 3.5673 2.44901 3.79379C1.99602 4.02029 1.81241 4.57112 2.03891 5.02411L5.70702 12.3604C5.86236 12.671 6.17989 12.8673 6.52723 12.8673C6.87459 12.8673 7.19212 12.671 7.34745 12.3604L11.0156 5.02411C11.2421 4.57112 11.0585 4.02029 10.6055 3.79379C10.1525 3.5673 9.6016 3.7509 9.37509 4.2039L6.52723 9.8997L3.67934 4.2039ZM13.8633 11.033C12.8504 11.033 12.0292 11.8542 12.0292 12.8671V14.7012C12.0292 15.714 12.8504 16.5352 13.8633 16.5352H16.6144V18.3693H13.8633V17.9108C13.8633 17.4043 13.4527 16.9937 12.9463 16.9937C12.4398 16.9937 12.0292 17.4043 12.0292 17.9108V18.3693C12.0292 19.3821 12.8504 20.2033 13.8633 20.2033H16.6144C17.6272 20.2033 18.4484 19.3821 18.4484 18.3693V16.5352C18.4484 15.5223 17.6272 14.7012 16.6144 14.7012H13.8633V12.8671H16.6144V13.3256C16.6144 13.832 17.0249 14.2426 17.5314 14.2426C18.0378 14.2426 18.4484 13.832 18.4484 13.3256V12.8671C18.4484 11.8542 17.6272 11.033 16.6144 11.033H13.8633Z" fill="#77727B"/>
</svg>
